inDegrees=no
num_controls=7
num_derivatives=13
num_iterations=91
num_multipliers=7
num_parameters=0
num_slacks=7
num_states=26
objective=0.469911
objective_accelerations=0.064064
objective_balance=0.002129
objective_effort=0.020371
objective_height=0.373787
objective_ligament=0.009561
solver_duration=1245.691848
status=Solve_Succeeded
success=true
DataType=double
version=3
OpenSimVersion=4.5
endheader
time	/jointset/ground_pelvis/pelvis_tilt/value	/jointset/ground_pelvis/pelvis_tx/value	/jointset/ground_pelvis/pelvis_ty/value	/jointset/hip_l/hip_flexion_l/value	/jointset/hip_l/hip_adduction_l/value	/jointset/hip_l/hip_rotation_l/value	/jointset/back/lumbar_extension/value	/jointset/patellofemoral_l/patellar_flexion_l/value	/jointset/knee_l/knee_flexion_l/value	/jointset/knee_l/knee_adduction_l/value	/jointset/knee_l/knee_rotation_l/value	/jointset/ankle_l/ankle_angle_l/value	/jointset/subtalar_l/subtalar_angle_l/value	/jointset/ground_pelvis/pelvis_tilt/speed	/jointset/ground_pelvis/pelvis_tx/speed	/jointset/ground_pelvis/pelvis_ty/speed	/jointset/hip_l/hip_flexion_l/speed	/jointset/hip_l/hip_adduction_l/speed	/jointset/hip_l/hip_rotation_l/speed	/jointset/back/lumbar_extension/speed	/jointset/patellofemoral_l/patellar_flexion_l/speed	/jointset/knee_l/knee_flexion_l/speed	/jointset/knee_l/knee_adduction_l/speed	/jointset/knee_l/knee_rotation_l/speed	/jointset/ankle_l/ankle_angle_l/speed	/jointset/subtalar_l/subtalar_angle_l/speed	/forceset/tau_hip_flexion_l	/forceset/tau_hip_adduction_l	/forceset/tau_hip_rotation_l	/forceset/tau_knee_flexion_l	/forceset/tau_ankle_angle_l	/forceset/tau_subtalar_angle_l	/forceset/tau_lumbar_extension	lambda_cid13_p0	lambda_cid13_p1	lambda_cid13_p2	lambda_cid13_p3	lambda_cid13_p4	lambda_cid13_p5	lambda_cid14_p0	/jointset/ground_pelvis/pelvis_tilt/accel	/jointset/ground_pelvis/pelvis_tx/accel	/jointset/ground_pelvis/pelvis_ty/accel	/jointset/hip_l/hip_flexion_l/accel	/jointset/hip_l/hip_adduction_l/accel	/jointset/hip_l/hip_rotation_l/accel	/jointset/back/lumbar_extension/accel	/jointset/patellofemoral_l/patellar_flexion_l/accel	/jointset/knee_l/knee_flexion_l/accel	/jointset/knee_l/knee_adduction_l/accel	/jointset/knee_l/knee_rotation_l/accel	/jointset/ankle_l/ankle_angle_l/accel	/jointset/subtalar_l/subtalar_angle_l/accel	gamma_cid13_p0	gamma_cid13_p1	gamma_cid13_p2	gamma_cid13_p3	gamma_cid13_p4	gamma_cid13_p5	gamma_cid14_p0
0	0.05053757882792377	0.106646601039882	0.9040105568733813	0.1266922784136757	-0.3604326523778565	-0.2390910232611653	-0.2144969558742783	0.2051545070141928	0.2051545070141877	-0.1542162642042608	-0.1690852266917159	0.09024313228550125	0.08962506610305342	0	0	0	0	0	0	0	0	0	0	0	0	0	0.117110751412631	-0.0434970127318982	-0.006834403140736565	-0.2162374471418664	0.1020209181860552	-0.07147022810740995	-0.0549644745027615	1.054676927913472	29.6112553914639	-3.581365812769346	18.22928014392764	-450.955073975263	-54.37915246832815	-26.40502173201831	-6.274678796416352	-2.50335899120968	-0.8742153706449396	14.62777562724589	0.1188392611407064	2.35321492882448	-3.825018928107828	7.334041224449392	7.334041224449671	2.097056884062183	-0.5156683662455488	-0.3011052384922711	0.006815306195832743	1.03514835956926e-09	1.10431014221176e-07	-1.005877597938793e-07	3.109160652158894e-08	3.651816872245846e-08	7.564597919202274e-08	2.775771710672589e-08
0.01	0.05023579538022539	0.1065221873499541	0.9039680898040462	0.1274044739126211	-0.3604270624854547	-0.2389682365132015	-0.2146948441512328	0.2055120553878892	0.2055120553879054	-0.1541149388293264	-0.1691029442155576	0.09022613562569064	0.08962435989090779	-0.05989235660591063	-0.02484312775069335	-0.008469285511391939	0.1417039375223258	0.001016346373133062	0.02467611492109958	-0.03949723839042227	0.0712391493740608	0.07123914937405836	0.01997002693889472	-0.003371496645474857	-0.003448936857574174	-0.0002685542056982255	0.1119308273538119	-0.05294846557140901	-0.005697721190951243	-0.2088137610434102	0.08925575830787365	-0.05955878742725086	-0.05117195379262587	-2.289754051203846	24.58749232868247	-2.282183040418766	19.97346420711612	-450.5641089376255	-64.04429404889167	-26.40476574647636	-5.77686099807376	-2.46884191282253	-0.8296585844391844	13.83143159871668	0.07778097733166128	2.542644401450187	-4.000013744849449	6.978267435908061	6.978267435907509	1.902728691249548	-0.2221093946325132	-0.3742273075340802	-0.06279279499100079	5.539500712488296e-09	2.795624804573202e-07	-4.576445874139643e-08	3.165694853003453e-08	-9.749501989713761e-08	6.65621893942356e-08	4.717444168191436e-08
0.02	0.04934901898539491	0.1061505319333553	0.9038416551909861	0.1295116545436419	-0.3604143593989387	-0.2385951216905336	-0.2152852923021567	0.2065738783838394	0.2065738783838266	-0.1538227625666891	-0.1691492205218341	0.09017316171765848	0.08961714773449771	-0.1169985894276918	-0.04944834533419701	-0.01679350874498025	0.278997026404257	0.001422638823504908	0.05006561495010701	-0.07851197479446689	0.1408549244290693	0.1408549244290641	0.03817017757568177	-0.005711756528324906	-0.007195449640910139	-0.001301188852917247	0.106750903295657	-0.06239991841072623	-0.00456103924224507	-0.201390074944441	0.07649059842986672	-0.04764734674681419	-0.0473794330821154	-5.601113731462595	19.56369710458211	-0.9895741632687283	21.80137889260081	-449.5042853122317	-73.57433677034304	-26.40375499153901	-5.717454039590707	-2.455776957771519	-0.8452029150842265	13.74560589916694	-0.003171523411527566	2.495891950406034	-3.728518530832414	7.009366360638926	7.009366360639131	1.743081623640668	-0.3094210137205553	-0.3606204236443616	-0.146000782108229	1.004385306540733e-08	4.486939466934643e-07	9.05884231108648e-09	3.222229053848012e-08	-2.315082085167337e-07	5.747839959644845e-08	6.659116625710285e-08
0.03	0.04790154471015177	0.1055349957045233	0.9036324101917501	0.1329720077474773	-0.3603994003937208	-0.2379682826758943	-0.2162599237878541	0.2083230826588652	0.2083230826587811	-0.1533550492834983	-0.1692163053710221	0.09008191758696341	0.08959739803248311	-0.1723231948665021	-0.07351855663639906	-0.02505184239848629	0.4124726680846991	0.001594101310077422	0.07508116981495262	-0.1160468708973778	0.2086098283770502	0.2086098283770647	0.05530923510262337	-0.00774285820492336	-0.01104071179565125	-0.002614968352006692	0.1039202518876717	-0.05858081846692268	-0.004286966324543498	-0.2002356899846291	0.07780629972562821	-0.05030726515295664	-0.04497049750180713	-5.269105065711646	20.69407847361177	-1.207836519250732	20.81327003143004	-448.9578765333112	-70.69310849209258	-26.40168621543836	-5.413998278162277	-2.361585199862136	-0.8156481280785328	13.05840262778585	0.03097366981516734	2.471246558666165	-3.710857433137831	6.602123686672225	6.602123686674973	1.689910346981608	-0.1556102969749342	-0.3945604016083808	-0.1190717071033942	3.81091105667148e-09	4.265557792304428e-07	1.148085074190906e-08	3.796774917249426e-08	-3.427497695733441e-07	2.593022784943316e-08	6.927182164196889e-08
